USFL
nRows=124
nColumns=2
inDegrees=yes
endheader
time	med_gas_r	
2.57661	 51.534819	
2.64819	 51.552980	
2.71976	 51.518344	
2.79133	 51.540848	
2.8629	 51.656883	
2.93448	 51.501945	
3.00605	 51.496001	
3.07762	 51.537398	
3.14919	 51.576443	
3.22077	 51.593045	
3.29234	 51.548558	
3.36391	 51.595735	
3.43548	 51.648659	
3.50706	 51.715257	
3.57863	 51.673808	
3.6502	 51.758348	
3.72177	 51.785469	
3.79335	 51.819086	
3.86492	 51.855387	
3.93649	 51.836021	
4.00806	 51.779863	
4.07964	 51.703381	
4.15121	 52.957959	
4.22278	 52.725506	
4.29435	 52.674801	
4.36593	 52.472545	
4.4375	 52.546588	
4.50907	 52.474534	
4.58065	 52.517173	
4.65222	 50.492381	
4.72379	 50.482344	
4.79536	 50.526745	
4.86694	 50.479794	
4.93851	 50.608035	
5.01008	 50.575481	
5.08165	 50.537884	
5.15323	 50.433692	
5.2248	 48.965985	
5.29637	 44.975009	
5.36794	 41.809176	
5.43952	 40.372061	
5.51109	 38.897778	
5.58266	 38.248711	
5.65423	 35.973193	
5.72581	 35.431127	
5.79738	 35.328108	
5.86895	 35.538153	
5.94052	 35.057025	
6.0121	 34.884032	
6.08367	 34.432262	
6.15524	 33.846363	
6.22681	 33.470712	
6.29839	 33.174054	
6.36996	 32.786151	
6.44153	 32.579145	
6.5131	 32.143316	
6.58468	 31.798359	
6.65625	 31.630845	
6.72782	 31.592975	
6.7994	 31.774603	
6.87097	 31.623162	
6.94254	 31.122058	
7.01411	 30.955687	
7.08569	 30.812211	
7.15726	 30.904210	
7.22883	 30.931949	
7.3004	 30.783506	
7.37198	 30.892773	
7.44355	 30.644597	
7.51512	 30.448779	
7.58669	 30.159370	
7.65827	 30.088413	
7.72984	 29.900522	
7.80141	 30.007197	
7.87298	 30.131557	
7.94456	 29.883196	
8.01613	 29.956799	
8.0877	 29.814958	
8.15927	 29.705957	
8.23085	 29.844772	
8.30242	 29.779187	
8.37399	 29.769271	
8.44556	 29.798212	
8.51714	 29.741053	
8.58871	 29.794525	
8.66028	 29.951237	
8.73185	 29.928820	
8.80343	 29.892799	
8.875	 30.060712	
8.94657	 30.083898	
9.01815	 30.133432	
9.08972	 30.115854	
9.16129	 30.175763	
9.23286	 30.144258	
9.30444	 30.072523	
9.37601	 29.992646	
9.44758	 29.807005	
9.51915	 29.688571	
9.59073	 29.702276	
9.6623	 29.887887	
9.73387	 29.785489	
9.80544	 29.745113	
9.87702	 29.541319	
9.94859	 29.483434	
10.0202	 29.225413	
10.0917	 29.031948	
10.1633	 29.178900	
10.2349	 29.327143	
10.3065	 29.061644	
10.378	 29.221833	
10.4496	 29.586903	
10.5212	 29.321036	
10.5927	 29.403916	
10.6643	 42.846509	
10.7359	 47.109668	
10.8075	 49.931802	
10.879	 52.732776	
10.9506	 52.605374	
11.0222	 52.362131	
11.0937	 52.521961	
11.1653	 52.124380	
11.2369	 52.351438	
11.3085	 52.163750	
11.38	 52.555497	
